<svg xmlns="http://www.w3.org/2000/svg" viewBox="0 0 200 200" width="200" height="200">
  <defs>
    <linearGradient id="grad1" x1="0%" y1="0%" x2="100%" y2="100%">
      <stop offset="0%" style="stop-color:#2e8555;stop-opacity:1" />
      <stop offset="100%" style="stop-color:#25c2a0;stop-opacity:1" />
    </linearGradient>
  </defs>
  <!-- Robot head/body -->
  <rect x="55" y="35" width="90" height="80" rx="12" fill="url(#grad1)" />
  <!-- Eyes -->
  <ellipse cx="85" cy="65" rx="12" ry="14" fill="#ffffff" />
  <ellipse cx="115" cy="65" rx="12" ry="14" fill="#ffffff" />
  <!-- Eye pupils -->
  <circle cx="88" cy="65" r="5" fill="#2e8555" />
  <circle cx="118" cy="65" r="5" fill="#2e8555" />
  <!-- Eye reflections -->
  <circle cx="85" cy="63" r="2" fill="#ffffff" opacity="0.8" />
  <circle cx="115" cy="63" r="2" fill="#ffffff" opacity="0.8" />
  <!-- Mouth -->
  <path d="M 75 90 Q 100 105 125 90" stroke="#ffffff" stroke-width="4" fill="none" stroke-linecap="round" />
  <!-- Antenna -->
  <line x1="100" y1="35" x2="100" y2="15" stroke="#2e8555" stroke-width="4" />
  <circle cx="100" cy="10" r="6" fill="#2e8555" />
  <!-- Chest/body -->
  <rect x="70" y="120" width="60" height="40" rx="8" fill="url(#grad1)" />
  <!-- Chest indicator -->
  <circle cx="100" cy="140" r="8" fill="#25c2a0" />
  <circle cx="100" cy="140" r="4" fill="#ffffff" />
  <!-- Arms -->
  <rect x="35" y="130" width="32" height="12" rx="6" fill="#2e8555" />
  <rect x="133" y="130" width="32" height="12" rx="6" fill="#2e8555" />
  <!-- Legs hint -->
  <rect x="75" y="165" width="20" height="25" rx="4" fill="url(#grad1)" />
  <rect x="105" y="165" width="20" height="25" rx="4" fill="url(#grad1)" />
</svg>
